# xmcd CD database file
#
# Track frame offsets:
#	150
#	14673
#	28890
#	44705
#	59838
#	75255
#	91885
#	106635
#	123135
#	136345
#	156865
#
# Disc length: 2305 seconds
#
# Revision: 2
# Processed by: cddbd v1.4PL0 Copyright (c) Steve Scherf et al.
# Submitted via: CdAid 2001.05.15.01
#
DISCID=8b08ff0b
DTITLE=Suzy Bogguss - Voices In The Wind
DYEAR=1900
DGENRE=
TTITLE0=Heartache
TTITLE1=Drive South
TTITLE2=Don't Wanna
TTITLE3=How Come You Go To Her
TTITLE4=Other Side Of The Hill
TTITLE5=In The Day
TTITLE6=Love Goes Without Saying
TTITLE7=Eat At Joe's
TTITLE8=Lovin' A Hurricane
TTITLE9=Letting Go
TTITLE10=Cold Day In July
EXTD=
EXTT0=
EXTT1=
EXTT2=
EXTT3=
EXTT4=
EXTT5=
EXTT6=
EXTT7=
EXTT8=
EXTT9=
EXTT10=
PLAYORDER=
